# xmcd
#
# Track frame offsets: 
#        150
#        10580
#        21848
#        31939
#        41256
#        50053
#        61028
#        74455
#        84843
#
# Disc length: 1271 seconds
#
# Revision: 2
# Processed by: cddbd v1.5.2PL0 Copyright (c) Steve Scherf et al.
# Submitted via: ExactAudioCopy v1.3
#
DISCID=6204f509
DTITLE=Mel Tillis - Mel Tillis At His Best
DYEAR=2006
DGENRE=Country
TTITLE0=Stateside
TTITLE1=Not In Front Of the Kids
TTITLE2=Wine
TTITLE3=Home Is where The Heart Is
TTITLE4=Above Suspicion
TTITLE5=Buried Alive
TTITLE6=Ode To The Little Brown Shack Out Back
TTITLE7=Guide Me Home My Georgia Moon
TTITLE8=Mr. Dropout
EXTD=\n\n
EXTT0=
EXTT1=
EXTT2=
EXTT3=
EXTT4=
EXTT5=
EXTT6=
EXTT7=
EXTT8=
PLAYORDER=
